<svg width="31" height="30" viewBox="0 0 31 30" fill="none" xmlns="http://www.w3.org/2000/svg">
<path d="M11.4997 26.0475C14.1249 26.6568 16.9082 26.3258 19.3174 25.1447C19.6245 25.2465 20.2674 25.4568 20.7961 25.6405C24.4618 26.9493 25.2104 27.0925 25.731 26.6638C26.4345 26.0943 25.995 25.1375 24.6445 22.5343C24.418 22.0848 24.1043 21.493 23.9433 21.1503C24.8014 19.9145 25.3944 18.5257 25.7373 17.0482C27.2367 10.5879 23.2888 4.14572 16.9256 2.66888C10.5624 1.19204 4.20914 5.24351 2.70978 11.7038C1.21043 18.164 5.16497 24.5773 11.4997 26.0475ZM19.5176 23.6341C19.2037 23.5613 19.0761 23.5927 18.8713 23.6978C16.7173 24.816 14.2042 25.1487 11.8359 24.599C6.30012 23.3142 2.82542 17.684 4.13652 12.0349C5.44761 6.38579 11.047 2.86156 16.5827 4.14634C22.1184 5.43112 25.5931 11.0613 24.282 16.7104C23.9593 18.101 23.358 19.3964 22.52 20.5452C22.1639 21.0426 22.3468 21.4209 23.3098 23.232C23.5799 23.7526 24.0177 24.587 24.2962 25.2011C23.4183 24.9669 22.089 24.4752 21.3102 24.2028C20.3602 23.8907 19.86 23.7136 19.5176 23.6341Z" fill="white"/>
<path d="M12.0202 11.0002C12.4159 10.9976 12.8081 11.0742 13.1737 11.2255C13.5394 11.3768 13.871 11.5997 14.1492 11.8812C14.4273 12.1626 14.6463 12.4969 14.7933 12.8643C14.9402 13.2317 15.0122 13.6248 15.0049 14.0204V18H12.9085V13.9849C12.9042 13.7412 12.8055 13.5088 12.6331 13.3364C12.4608 13.1641 12.2283 13.0654 11.9846 13.061C11.7467 13.0727 11.5221 13.1748 11.357 13.3466C11.1918 13.5183 11.0986 13.7467 11.0963 13.9849V17.9645H9V13.9849C9.00035 13.5901 9.07897 13.1992 9.23131 12.8349C9.38366 12.4706 9.6067 12.1402 9.88755 11.8626C10.1684 11.5851 10.5015 11.3659 10.8675 11.2179C11.2336 11.0699 11.6254 10.9959 12.0202 11.0002Z" fill="white"/>
<path d="M15.9642 11.0001C16.3609 10.9998 16.7538 11.0777 17.1203 11.2294C17.4869 11.381 17.82 11.6035 18.1005 11.884C18.381 12.1645 18.6035 12.4976 18.7551 12.8642C18.9068 13.2308 18.9847 13.6236 18.9844 14.0204V17.9999H16.888V13.9849C16.8837 13.7412 16.7849 13.5087 16.6126 13.3364C16.4403 13.1641 16.2078 13.0653 15.9641 13.061H15.8576C15.6878 12.3632 15.3316 11.7246 14.8271 11.2134C15.1893 11.0711 15.5751 10.9987 15.9642 11.0001Z" fill="white"/>
</svg>
